<svg width="132" height="132" viewBox="0 0 132 132" fill="none" xmlns="http://www.w3.org/2000/svg">
<g filter="url(#filter0_i_91_464)">
<rect x="132" y="132" width="132" height="132" rx="27.3142" transform="rotate(180 132 132)" fill="url(#paint0_linear_91_464)"/>
<path d="M32.6677 57.8943C31.2745 59.2875 29.0156 59.2875 27.6224 57.8943L26.9918 57.2637C18.9807 49.2526 18.9807 36.2642 26.9918 28.2532C35.0028 20.2421 47.9912 20.2421 56.0023 28.2532L56.6329 28.8838C58.0261 30.2771 58.0261 32.5359 56.6329 33.9291L32.6677 57.8943ZM102.671 74.9222C110.682 82.9332 110.682 95.9217 102.671 103.933C94.6603 111.944 81.6718 111.944 73.6608 103.933L73.0301 103.302C71.6369 101.909 71.6369 99.65 73.0301 98.2567L96.9953 74.2916C98.3886 72.8983 100.647 72.8983 102.041 74.2916L102.671 74.9222Z" fill="#FF6600"/>
<path d="M73.0301 27.6224C81.3894 19.2631 94.9426 19.2631 103.302 27.6224C111.661 35.9817 111.661 49.5349 103.302 57.8942L57.8942 103.302C49.5349 111.661 35.9817 111.661 27.6224 103.302C19.2631 94.9426 19.2631 81.3894 27.6224 73.0301L73.0301 27.6224Z" fill="#FF6600"/>
<path d="M108.7 48.8137C115.137 52.2747 119.514 59.0717 119.514 66.8918C119.514 72.1175 117.558 76.8858 114.341 80.508C113.021 76.6238 110.814 72.9741 107.717 69.8771L107.086 69.2463C102.906 65.0667 96.13 65.0668 91.9503 69.2463L73.7902 87.4055L103.302 57.8937C105.924 55.2713 107.723 52.1377 108.7 48.8137ZM16.5324 54.6574C17.8512 57.4244 19.6554 60.0177 21.9464 62.3088L22.5773 62.9396C26.757 67.1191 33.5334 67.1192 37.713 62.9396L27.6222 73.0305C24.4958 76.157 22.5379 80.0099 21.7502 84.0461C16.171 80.3798 12.4865 74.0667 12.4865 66.8918C12.4865 62.3069 13.9906 58.0731 16.5324 54.6574ZM30.006 58.9348C30.0002 58.9345 29.9943 58.935 29.9884 58.9348C29.9943 58.935 30.0002 58.9345 30.006 58.9348ZM30.6408 58.9035C30.6349 58.9043 30.6291 58.9056 30.6232 58.9064C30.6291 58.9056 30.6349 58.9043 30.6408 58.9035ZM29.3771 58.8547C29.3657 58.8522 29.3543 58.8495 29.3429 58.8469C29.3543 58.8495 29.3657 58.8522 29.3771 58.8547ZM30.9601 58.8439C30.953 58.8456 30.9458 58.8472 30.9386 58.8488C30.9458 58.8472 30.953 58.8456 30.9601 58.8439ZM31.2775 58.7541C31.2659 58.758 31.254 58.7611 31.2423 58.7648C31.254 58.7611 31.2659 58.758 31.2775 58.7541ZM28.755 58.6574C28.7406 58.6513 28.7265 58.6442 28.7121 58.6379C28.7265 58.6442 28.7405 58.6513 28.755 58.6574ZM31.6095 58.6242C31.5862 58.6347 31.5627 58.6445 31.5392 58.6545C31.5627 58.6445 31.5862 58.6347 31.6095 58.6242ZM31.7433 58.5607C31.7272 58.5688 31.7107 58.5763 31.6945 58.5842C31.7107 58.5763 31.7272 58.5688 31.7433 58.5607ZM31.9171 58.468C31.8884 58.4844 31.8593 58.5002 31.8302 58.5158C31.8593 58.5002 31.8884 58.4844 31.9171 58.468ZM32.0519 58.3859C32.03 58.3998 32.0086 58.4145 31.9865 58.4279C32.0086 58.4145 32.03 58.3998 32.0519 58.3859ZM32.2433 58.256C32.2067 58.2827 32.1694 58.3081 32.132 58.3332C32.1694 58.3081 32.2067 58.2827 32.2433 58.256ZM32.6681 57.8947C32.5396 58.0232 32.4027 58.1386 32.2609 58.2433C32.4026 58.1387 32.5388 58.023 32.6671 57.8947L44.1837 46.3781H44.1847L32.6681 57.8947Z" fill="#00BF3A"/>
<path d="M73.0301 27.6224C81.3895 19.2631 94.9426 19.2631 103.302 27.6224C111.661 35.9817 111.661 49.5349 103.302 57.8942L80.5981 80.5981L57.8942 103.302C49.5349 111.661 35.9817 111.661 27.6224 103.302C19.2631 94.9426 19.2631 81.3894 27.6224 73.0301L50.3263 50.3262L73.0301 27.6224Z" fill="#FF6600"/>
<path d="M103.302 57.8942C111.661 49.5349 111.661 35.9817 103.302 27.6224C94.9426 19.2631 81.3895 19.2631 73.0301 27.6224L50.3263 50.3262L80.5981 80.5981L103.302 57.8942Z" fill="white"/>
</g>
<defs>
<filter id="filter0_i_91_464" x="0" y="0" width="132" height="133.784" filterUnits="userSpaceOnUse" color-interpolation-filters="sRGB">
<feFlood flood-opacity="0" result="BackgroundImageFix"/>
<feBlend mode="normal" in="SourceGraphic" in2="BackgroundImageFix" result="shape"/>
<feColorMatrix in="SourceAlpha" type="matrix" values="0 0 0 0 0 0 0 0 0 0 0 0 0 0 0 0 0 0 127 0" result="hardAlpha"/>
<feOffset dy="1.78378"/>
<feGaussianBlur stdDeviation="0.891892"/>
<feComposite in2="hardAlpha" operator="arithmetic" k2="-1" k3="1"/>
<feColorMatrix type="matrix" values="0 0 0 0 0 0 0 0 0 0 0 0 0 0 0 0 0 0 0.1 0"/>
<feBlend mode="normal" in2="shape" result="effect1_innerShadow_91_464"/>
</filter>
<linearGradient id="paint0_linear_91_464" x1="257.4" y1="132" x2="168.771" y2="223.457" gradientUnits="userSpaceOnUse">
<stop stop-color="#F5EBEB"/>
<stop offset="1" stop-color="#FCD8B9"/>
</linearGradient>
</defs>
</svg>
